<svg width="430" height="370" viewBox="0 0 430 370" fill="none" xmlns="http://www.w3.org/2000/svg">
<path d="M220.318 52.5C246 52.5 271.818 77 286.818 111.5H288.318V47H286.818C286.818 47 285.818 55.0014 282.818 57C279.818 58.9986 275.818 57 275.818 57L251.318 47C251.318 47 235.318 41 220.318 41C178.818 41 132.443 70.4986 129.818 112.5C127.193 154.501 135.318 169.499 244.318 215.999C284.818 235.999 270.318 292 226.318 294.5C182.318 297 152.509 233.105 156.818 181C141.55 170.441 134.891 162.3 125.818 144.5C112.818 172.5 113.235 232.693 148.818 272C194.082 322 265.318 316.788 290.818 280.5C315.063 245.999 304.318 217.5 270.318 193C236.318 168.5 161.763 159 164.318 112.5C166.873 66 194.746 52.5 220.318 52.5Z" fill="#1A1A1A" fill-opacity="0.9"/>
<path d="M172.818 117.5C209.318 82 272.818 115 272.818 185V185.5C308.318 211 306.818 230 306.818 230C306.818 230 325.193 187 290.818 132C253.318 72.0001 197.318 92.5 197.318 92.5C197.318 92.5 172.818 97.5 172.818 117.5Z" fill="#1A1A1A" fill-opacity="0.9"/>
<path d="M147.318 284.5V300.5C159.55 299.749 166.45 300.266 178.818 302.5L147.318 284.5Z" fill="#1A1A1A" fill-opacity="0.9"/>
</svg>
