<svg width="430" height="70" viewBox="0 0 430 70" fill="none" xmlns="http://www.w3.org/2000/svg">
<path d="M139.366 34.896C139.366 51.536 134.374 58.64 124.71 58.64C114.982 58.64 109.99 51.536 109.99 34.896C109.99 18.512 115.046 11.6 124.71 11.6C134.374 11.6 139.366 18.512 139.366 34.896ZM134.886 34.896C134.886 18.064 132.198 12.112 124.646 12.112C117.158 12.112 114.534 18.064 114.534 34.896C114.534 52.048 117.222 58.128 124.71 58.128C132.134 58.128 134.886 52.048 134.886 34.896ZM145.593 12.752V12.24H160.121C170.169 12.24 174.649 17.232 174.649 23.632C174.649 30.608 169.593 34.576 163.833 35.344C166.585 36.048 168.825 37.456 170.617 42.128L173.497 49.68C176.057 56.464 177.913 57.424 181.689 57.488V58H179.193C174.393 58 171.833 56.72 169.529 50.832L166.073 41.616C164.665 38.032 162.745 35.536 158.329 35.536V35.216H160.697C167.289 35.216 170.169 30.416 170.169 23.824C170.169 18.448 168.569 12.816 160.121 12.816H155.257V57.488H160.633V58H145.593V57.488H150.969V12.752H145.593ZM198.749 32.976C205.021 37.584 208.733 41.616 208.733 47.504C208.733 54.608 203.549 58.64 196.189 58.64C191.901 58.64 189.597 57.68 187.933 57.68C187.229 57.68 186.653 57.808 186.205 58H185.757V46.992H186.397C186.653 55.952 189.981 58.064 196.125 58.064C202.205 58.064 205.213 54.288 205.213 49.552C205.213 44.496 202.653 41.232 196.189 36.496C189.981 31.888 186.205 27.92 186.205 22.032C186.205 15.376 191.325 11.6 198.493 11.6C202.205 11.6 204.061 12.432 205.789 12.432C206.493 12.432 206.941 12.432 207.453 12.24H207.901V22.16H207.261C206.813 14.288 204.893 12.24 198.557 12.24C192.285 12.24 189.725 15.824 189.725 20.112C189.725 25.232 192.349 28.24 198.749 32.976ZM222.173 57.488V58H211.805V57.488C215.453 57.488 216.221 57.04 217.117 54.352L230.621 11.6H231.645L245.597 57.488H249.757V58H236.445V57.488H241.117C240.989 56.72 240.733 55.76 240.477 54.928L236.957 43.216H221.341L217.693 54.544C217.501 55.248 217.437 55.632 217.437 56.144C217.437 56.976 217.949 57.488 220.125 57.488H222.173ZM221.469 42.704H236.829L229.341 17.68L221.469 42.704ZM247.971 12.752V12.24H261.795V12.752H256.803C256.931 13.584 257.059 14.352 257.379 15.248L266.403 37.52L275.299 15.696C275.619 14.928 275.747 14.416 275.747 14.032C275.747 13.2 275.171 12.752 273.827 12.752H271.075V12.24H280.995V12.752C277.859 12.752 276.963 13.328 275.939 15.888L266.659 38.608V57.488H272.035V58H256.995V57.488H262.371V38.736L251.811 12.752H247.971ZM314.68 15.888V58H313.848L291.384 13.392V54.16C291.384 56.912 292.856 57.488 297.336 57.488V58H285.176V57.488C289.464 57.488 290.744 56.912 290.744 54.16V12.752H285.368V12.24H295.608L314.04 49.616V15.888C314.04 13.136 312.312 12.752 307.96 12.752V12.24H320.248V12.752C315.96 12.752 314.68 13.328 314.68 15.888Z" fill="#1A1A1A" fill-opacity="0.95"/>
</svg>
